0
SECTION
2
HEADER
9
$ACADVER
1
AC1009
9
$INSUNITS
70
4
999
Generated by JWCAD Tategu Web | Build: 2026/01/06 06:36:56
0
ENDSEC
0
SECTION
2
TABLES
0
TABLE
2
LAYER
0
LAYER
2
0-2
70
0
62
7
6
CONTINUOUS
0
LAYER
2
0-E
70
0
62
7
6
CONTINUOUS
0
LAYER
2
1-2
70
0
62
7
6
CONTINUOUS
0
LAYER
2
1-E
70
0
62
7
6
CONTINUOUS
0
LAYER
2
2-2
70
0
62
7
6
CONTINUOUS
0
LAYER
2
2-E
70
0
62
7
6
CONTINUOUS
0
LAYER
2
3-2
70
0
62
7
6
CONTINUOUS
0
LAYER
2
3-E
70
0
62
7
6
CONTINUOUS
0
LAYER
2
4-2
70
0
62
7
6
CONTINUOUS
0
LAYER
2
4-E
70
0
62
7
6
CONTINUOUS
0
LAYER
2
5-2
70
0
62
7
6
CONTINUOUS
0
LAYER
2
5-E
70
0
62
7
6
CONTINUOUS
0
LAYER
2
F-1
70
0
62
7
6
CONTINUOUS
0
LAYER
2
F-F
70
0
62
4
6
CONTINUOUS
0
LAYER
2
F-0
70
0
62
4
6
CONTINUOUS
0
LAYER
2
F-9
70
0
62
4
6
CONTINUOUS
0
LAYER
2
5_SCALE
70
0
62
3
6
CONTINUOUS
0
ENDTAB
0
ENDSEC
0
SECTION
2
ENTITIES
0
SOLID
8
0-E
62
150
10
57
20
35
11
127
21
35
12
127
22
2035
13
57
23
2035
0
SOLID
8
0-E
62
150
10
787
20
35
11
857
21
35
12
857
22
2035
13
787
23
2035
0
SOLID
8
0-E
62
150
10
127
20
1955
11
787
21
1955
12
787
22
2035
13
127
23
2035
0
SOLID
8
0-E
62
150
10
127
20
35
11
787
21
35
12
787
22
155
13
127
23
155
0
SOLID
8
0-E
62
150
10
127
20
1726.25
11
787
21
1726.25
12
787
22
1756.25
13
127
23
1756.25
0
SOLID
8
0-E
62
150
10
127
20
1497.5
11
787
21
1497.5
12
787
22
1527.5
13
127
23
1527.5
0
SOLID
8
0-E
62
150
10
127
20
1268.75
11
787
21
1268.75
12
787
22
1298.75
13
127
23
1298.75
0
SOLID
8
0-E
62
150
10
127
20
1040
11
787
21
1040
12
787
22
1070
13
127
23
1070
0
SOLID
8
0-E
62
150
10
127
20
811.25
11
787
21
811.25
12
787
22
841.25
13
127
23
841.25
0
SOLID
8
0-E
62
150
10
127
20
582.5
11
787
21
582.5
12
787
22
612.5
13
127
23
612.5
0
SOLID
8
0-E
62
150
10
127
20
353.75
11
787
21
353.75
12
787
22
383.75
13
127
23
383.75
0
LINE
8
0-2
10
57
20
35
11
127
21
35
0
LINE
8
0-2
10
127
20
35
11
127
21
2035
0
LINE
8
0-2
10
127
20
2035
11
57
21
2035
0
LINE
8
0-2
10
57
20
2035
11
57
21
35
0
LINE
8
0-2
10
787
20
35
11
857
21
35
0
LINE
8
0-2
10
857
20
35
11
857
21
2035
0
LINE
8
0-2
10
857
20
2035
11
787
21
2035
0
LINE
8
0-2
10
787
20
2035
11
787
21
35
0
LINE
8
0-2
10
127
20
1955
11
787
21
1955
0
LINE
8
0-2
10
787
20
1955
11
787
21
2035
0
LINE
8
0-2
10
787
20
2035
11
127
21
2035
0
LINE
8
0-2
10
127
20
2035
11
127
21
1955
0
LINE
8
0-2
10
127
20
35
11
787
21
35
0
LINE
8
0-2
10
787
20
35
11
787
21
155
0
LINE
8
0-2
10
787
20
155
11
127
21
155
0
LINE
8
0-2
10
127
20
155
11
127
21
35
0
LINE
8
0-2
10
127
20
1726.25
11
787
21
1726.25
0
LINE
8
0-2
10
787
20
1726.25
11
787
21
1756.25
0
LINE
8
0-2
10
787
20
1756.25
11
127
21
1756.25
0
LINE
8
0-2
10
127
20
1756.25
11
127
21
1726.25
0
LINE
8
0-2
10
127
20
1497.5
11
787
21
1497.5
0
LINE
8
0-2
10
787
20
1497.5
11
787
21
1527.5
0
LINE
8
0-2
10
787
20
1527.5
11
127
21
1527.5
0
LINE
8
0-2
10
127
20
1527.5
11
127
21
1497.5
0
LINE
8
0-2
10
127
20
1268.75
11
787
21
1268.75
0
LINE
8
0-2
10
787
20
1268.75
11
787
21
1298.75
0
LINE
8
0-2
10
787
20
1298.75
11
127
21
1298.75
0
LINE
8
0-2
10
127
20
1298.75
11
127
21
1268.75
0
LINE
8
0-2
10
127
20
1040
11
787
21
1040
0
LINE
8
0-2
10
787
20
1040
11
787
21
1070
0
LINE
8
0-2
10
787
20
1070
11
127
21
1070
0
LINE
8
0-2
10
127
20
1070
11
127
21
1040
0
LINE
8
0-2
10
127
20
811.25
11
787
21
811.25
0
LINE
8
0-2
10
787
20
811.25
11
787
21
841.25
0
LINE
8
0-2
10
787
20
841.25
11
127
21
841.25
0
LINE
8
0-2
10
127
20
841.25
11
127
21
811.25
0
LINE
8
0-2
10
127
20
582.5
11
787
21
582.5
0
LINE
8
0-2
10
787
20
582.5
11
787
21
612.5
0
LINE
8
0-2
10
787
20
612.5
11
127
21
612.5
0
LINE
8
0-2
10
127
20
612.5
11
127
21
582.5
0
LINE
8
0-2
10
127
20
353.75
11
787
21
353.75
0
LINE
8
0-2
10
787
20
353.75
11
787
21
383.75
0
LINE
8
0-2
10
787
20
383.75
11
127
21
383.75
0
LINE
8
0-2
10
127
20
383.75
11
127
21
353.75
0
LINE
8
F-1
10
57
20
35
11
857
21
35
0
LINE
8
F-1
10
857
20
35
11
857
21
2035
0
LINE
8
F-1
10
857
20
2035
11
57
21
2035
0
LINE
8
F-1
10
57
20
2035
11
57
21
35
0
LINE
8
F-F
10
57
20
-15
11
857
21
-15
0
LINE
8
F-F
10
57
20
-5
11
57
21
-25
0
LINE
8
F-F
10
857
20
-5
11
857
21
-25
0
TEXT
8
F-F
10
417
20
0
40
20
1
W 800
0
LINE
8
F-F
10
127
20
-65
11
787
21
-65
0
LINE
8
F-F
10
127
20
-57
11
127
21
-73
0
LINE
8
F-F
10
787
20
-57
11
787
21
-73
0
TEXT
8
F-F
10
427
20
-53
40
18
1
660
0
LINE
8
F-F
10
7
20
35
11
7
21
2035
0
LINE
8
F-F
10
-3
20
35
11
17
21
35
0
LINE
8
F-F
10
-3
20
2035
11
17
21
2035
0
TEXT
8
F-F
10
-33
20
1045
40
20
1
H 2000
0
LINE
8
F-F
10
-43
20
155
11
-43
21
1955
0
LINE
8
F-F
10
-51
20
155
11
-35
21
155
0
LINE
8
F-F
10
-51
20
1955
11
-35
21
1955
0
TEXT
8
F-F
10
-73
20
1063
40
18
1
1800
0
LINE
8
F-0
10
0
20
120
11
60
21
120
0
LINE
8
F-0
10
60
20
120
11
60
21
132
0
LINE
8
F-0
10
60
20
132
11
0
21
132
0
LINE
8
F-0
10
0
20
132
11
0
21
120
0
TEXT
8
F-0
10
5
20
123
40
8
1
D-1
0
TEXT
8
F-0
10
65
20
123
40
6
1
掃き出し窓
0
TEXT
8
F-0
10
0
20
-15
40
5
1
Spec:
0
SOLID
8
0-E
62
150
10
197
20
35
11
297
21
35
12
297
22
2035
13
197
23
2035
0
SOLID
8
0-E
62
150
10
897
20
35
11
997
21
35
12
997
22
2035
13
897
23
2035
0
SOLID
8
0-E
62
150
10
297
20
1935
11
897
21
1935
12
897
22
2035
13
297
23
2035
0
SOLID
8
0-E
62
150
10
297
20
35
11
897
21
35
12
897
22
235
13
297
23
235
0
SOLID
8
0-E
62
150
10
372
20
235
11
402
21
235
12
402
22
1935
13
372
23
1935
0
SOLID
8
0-E
62
150
10
477
20
235
11
507
21
235
12
507
22
1935
13
477
23
1935
0
SOLID
8
0-E
62
150
10
582
20
235
11
612
21
235
12
612
22
1935
13
582
23
1935
0
SOLID
8
0-E
62
150
10
687
20
235
11
717
21
235
12
717
22
1935
13
687
23
1935
0
SOLID
8
0-E
62
150
10
792
20
235
11
822
21
235
12
822
22
1935
13
792
23
1935
0
LINE
8
0-2
10
197
20
35
11
297
21
35
0
LINE
8
0-2
10
297
20
35
11
297
21
2035
0
LINE
8
0-2
10
297
20
2035
11
197
21
2035
0
LINE
8
0-2
10
197
20
2035
11
197
21
35
0
LINE
8
0-2
10
897
20
35
11
997
21
35
0
LINE
8
0-2
10
997
20
35
11
997
21
2035
0
LINE
8
0-2
10
997
20
2035
11
897
21
2035
0
LINE
8
0-2
10
897
20
2035
11
897
21
35
0
LINE
8
0-2
10
297
20
1935
11
897
21
1935
0
LINE
8
0-2
10
897
20
1935
11
897
21
2035
0
LINE
8
0-2
10
897
20
2035
11
297
21
2035
0
LINE
8
0-2
10
297
20
2035
11
297
21
1935
0
LINE
8
0-2
10
297
20
35
11
897
21
35
0
LINE
8
0-2
10
897
20
35
11
897
21
235
0
LINE
8
0-2
10
897
20
235
11
297
21
235
0
LINE
8
0-2
10
297
20
235
11
297
21
35
0
LINE
8
0-2
10
372
20
235
11
402
21
235
0
LINE
8
0-2
10
402
20
235
11
402
21
1935
0
LINE
8
0-2
10
402
20
1935
11
372
21
1935
0
LINE
8
0-2
10
372
20
1935
11
372
21
235
0
LINE
8
0-2
10
477
20
235
11
507
21
235
0
LINE
8
0-2
10
507
20
235
11
507
21
1935
0
LINE
8
0-2
10
507
20
1935
11
477
21
1935
0
LINE
8
0-2
10
477
20
1935
11
477
21
235
0
LINE
8
0-2
10
582
20
235
11
612
21
235
0
LINE
8
0-2
10
612
20
235
11
612
21
1935
0
LINE
8
0-2
10
612
20
1935
11
582
21
1935
0
LINE
8
0-2
10
582
20
1935
11
582
21
235
0
LINE
8
0-2
10
687
20
235
11
717
21
235
0
LINE
8
0-2
10
717
20
235
11
717
21
1935
0
LINE
8
0-2
10
717
20
1935
11
687
21
1935
0
LINE
8
0-2
10
687
20
1935
11
687
21
235
0
LINE
8
0-2
10
792
20
235
11
822
21
235
0
LINE
8
0-2
10
822
20
235
11
822
21
1935
0
LINE
8
0-2
10
822
20
1935
11
792
21
1935
0
LINE
8
0-2
10
792
20
1935
11
792
21
235
0
LINE
8
F-1
10
197
20
35
11
997
21
35
0
LINE
8
F-1
10
997
20
35
11
997
21
2035
0
LINE
8
F-1
10
997
20
2035
11
197
21
2035
0
LINE
8
F-1
10
197
20
2035
11
197
21
35
0
LINE
8
F-F
10
197
20
-15
11
997
21
-15
0
LINE
8
F-F
10
197
20
-5
11
197
21
-25
0
LINE
8
F-F
10
997
20
-5
11
997
21
-25
0
TEXT
8
F-F
10
557
20
0
40
20
1
W 800
0
LINE
8
F-F
10
297
20
-65
11
897
21
-65
0
LINE
8
F-F
10
297
20
-57
11
297
21
-73
0
LINE
8
F-F
10
897
20
-57
11
897
21
-73
0
TEXT
8
F-F
10
567
20
-53
40
18
1
600
0
LINE
8
F-F
10
147
20
35
11
147
21
2035
0
LINE
8
F-F
10
137
20
35
11
157
21
35
0
LINE
8
F-F
10
137
20
2035
11
157
21
2035
0
TEXT
8
F-F
10
107
20
1045
40
20
1
H 2000
0
LINE
8
F-F
10
97
20
235
11
97
21
1935
0
LINE
8
F-F
10
89
20
235
11
105
21
235
0
LINE
8
F-F
10
89
20
1935
11
105
21
1935
0
TEXT
8
F-F
10
67
20
1093
40
18
1
1700
0
LINE
8
F-0
10
140
20
120
11
200
21
120
0
LINE
8
F-0
10
200
20
120
11
200
21
132
0
LINE
8
F-0
10
200
20
132
11
140
21
132
0
LINE
8
F-0
10
140
20
132
11
140
21
120
0
TEXT
8
F-0
10
145
20
123
40
8
1
D-2
0
TEXT
8
F-0
10
205
20
123
40
6
1
新規建具
0
TEXT
8
F-0
10
140
20
-15
40
5
1
Spec:
0
SOLID
8
0-E
62
150
10
341
20
35
11
441
21
35
12
441
22
2035
13
341
23
2035
0
SOLID
8
0-E
62
150
10
641
20
35
11
741
21
35
12
741
22
2035
13
641
23
2035
0
SOLID
8
0-E
62
150
10
441
20
1975
11
641
21
1975
12
641
22
2035
13
441
23
2035
0
SOLID
8
0-E
62
150
10
441
20
35
11
641
21
35
12
641
22
95
13
441
23
95
0
SOLID
8
0-E
62
150
10
441
20
1338.3333333333335
11
641
21
1338.3333333333335
12
641
22
1368.3333333333335
13
441
23
1368.3333333333335
0
SOLID
8
0-E
62
150
10
441
20
701.6666666666667
11
641
21
701.6666666666667
12
641
22
731.6666666666667
13
441
23
731.6666666666667
0
SOLID
8
0-E
62
150
10
486.5
20
1368.3333333333335
11
492.5
21
1368.3333333333335
12
492.5
22
1975
13
486.5
23
1975
0
SOLID
8
0-E
62
150
10
538
20
1368.3333333333335
11
544
21
1368.3333333333335
12
544
22
1975
13
538
23
1975
0
SOLID
8
0-E
62
150
10
589.5
20
1368.3333333333335
11
595.5
21
1368.3333333333335
12
595.5
22
1975
13
589.5
23
1975
0
SOLID
8
0-E
62
150
10
441
20
1887.4761904761904
11
641
21
1887.4761904761904
12
641
22
1893.4761904761904
13
441
23
1893.4761904761904
0
SOLID
8
0-E
62
150
10
441
20
1799.952380952381
11
641
21
1799.952380952381
12
641
22
1805.952380952381
13
441
23
1805.952380952381
0
SOLID
8
0-E
62
150
10
441
20
1712.4285714285716
11
641
21
1712.4285714285716
12
641
22
1718.4285714285716
13
441
23
1718.4285714285716
0
SOLID
8
0-E
62
150
10
441
20
1624.904761904762
11
641
21
1624.904761904762
12
641
22
1630.904761904762
13
441
23
1630.904761904762
0
SOLID
8
0-E
62
150
10
441
20
1537.3809523809523
11
641
21
1537.3809523809523
12
641
22
1543.3809523809523
13
441
23
1543.3809523809523
0
SOLID
8
0-E
62
150
10
441
20
1449.857142857143
11
641
21
1449.857142857143
12
641
22
1455.857142857143
13
441
23
1455.857142857143
0
LINE
8
0-2
10
341
20
35
11
441
21
35
0
LINE
8
0-2
10
441
20
35
11
441
21
2035
0
LINE
8
0-2
10
441
20
2035
11
341
21
2035
0
LINE
8
0-2
10
341
20
2035
11
341
21
35
0
LINE
8
0-2
10
641
20
35
11
741
21
35
0
LINE
8
0-2
10
741
20
35
11
741
21
2035
0
LINE
8
0-2
10
741
20
2035
11
641
21
2035
0
LINE
8
0-2
10
641
20
2035
11
641
21
35
0
LINE
8
0-2
10
441
20
1975
11
641
21
1975
0
LINE
8
0-2
10
641
20
1975
11
641
21
2035
0
LINE
8
0-2
10
641
20
2035
11
441
21
2035
0
LINE
8
0-2
10
441
20
2035
11
441
21
1975
0
LINE
8
0-2
10
441
20
35
11
641
21
35
0
LINE
8
0-2
10
641
20
35
11
641
21
95
0
LINE
8
0-2
10
641
20
95
11
441
21
95
0
LINE
8
0-2
10
441
20
95
11
441
21
35
0
LINE
8
0-2
10
441
20
1338.3333333333335
11
641
21
1338.3333333333335
0
LINE
8
0-2
10
641
20
1338.3333333333335
11
641
21
1368.3333333333335
0
LINE
8
0-2
10
641
20
1368.3333333333335
11
441
21
1368.3333333333335
0
LINE
8
0-2
10
441
20
1368.3333333333335
11
441
21
1338.3333333333335
0
LINE
8
0-2
10
441
20
701.6666666666667
11
641
21
701.6666666666667
0
LINE
8
0-2
10
641
20
701.6666666666667
11
641
21
731.6666666666667
0
LINE
8
0-2
10
641
20
731.6666666666667
11
441
21
731.6666666666667
0
LINE
8
0-2
10
441
20
731.6666666666667
11
441
21
701.6666666666667
0
LINE
8
0-2
10
486.5
20
1368.3333333333335
11
492.5
21
1368.3333333333335
0
LINE
8
0-2
10
492.5
20
1368.3333333333335
11
492.5
21
1975
0
LINE
8
0-2
10
492.5
20
1975
11
486.5
21
1975
0
LINE
8
0-2
10
486.5
20
1975
11
486.5
21
1368.3333333333335
0
LINE
8
0-2
10
538
20
1368.3333333333335
11
544
21
1368.3333333333335
0
LINE
8
0-2
10
544
20
1368.3333333333335
11
544
21
1975
0
LINE
8
0-2
10
544
20
1975
11
538
21
1975
0
LINE
8
0-2
10
538
20
1975
11
538
21
1368.3333333333335
0
LINE
8
0-2
10
589.5
20
1368.3333333333335
11
595.5
21
1368.3333333333335
0
LINE
8
0-2
10
595.5
20
1368.3333333333335
11
595.5
21
1975
0
LINE
8
0-2
10
595.5
20
1975
11
589.5
21
1975
0
LINE
8
0-2
10
589.5
20
1975
11
589.5
21
1368.3333333333335
0
LINE
8
0-2
10
441
20
1887.4761904761904
11
641
21
1887.4761904761904
0
LINE
8
0-2
10
641
20
1887.4761904761904
11
641
21
1893.4761904761904
0
LINE
8
0-2
10
641
20
1893.4761904761904
11
441
21
1893.4761904761904
0
LINE
8
0-2
10
441
20
1893.4761904761904
11
441
21
1887.4761904761904
0
LINE
8
0-2
10
441
20
1799.952380952381
11
641
21
1799.952380952381
0
LINE
8
0-2
10
641
20
1799.952380952381
11
641
21
1805.952380952381
0
LINE
8
0-2
10
641
20
1805.952380952381
11
441
21
1805.952380952381
0
LINE
8
0-2
10
441
20
1805.952380952381
11
441
21
1799.952380952381
0
LINE
8
0-2
10
441
20
1712.4285714285716
11
641
21
1712.4285714285716
0
LINE
8
0-2
10
641
20
1712.4285714285716
11
641
21
1718.4285714285716
0
LINE
8
0-2
10
641
20
1718.4285714285716
11
441
21
1718.4285714285716
0
LINE
8
0-2
10
441
20
1718.4285714285716
11
441
21
1712.4285714285716
0
LINE
8
0-2
10
441
20
1624.904761904762
11
641
21
1624.904761904762
0
LINE
8
0-2
10
641
20
1624.904761904762
11
641
21
1630.904761904762
0
LINE
8
0-2
10
641
20
1630.904761904762
11
441
21
1630.904761904762
0
LINE
8
0-2
10
441
20
1630.904761904762
11
441
21
1624.904761904762
0
LINE
8
0-2
10
441
20
1537.3809523809523
11
641
21
1537.3809523809523
0
LINE
8
0-2
10
641
20
1537.3809523809523
11
641
21
1543.3809523809523
0
LINE
8
0-2
10
641
20
1543.3809523809523
11
441
21
1543.3809523809523
0
LINE
8
0-2
10
441
20
1543.3809523809523
11
441
21
1537.3809523809523
0
LINE
8
0-2
10
441
20
1449.857142857143
11
641
21
1449.857142857143
0
LINE
8
0-2
10
641
20
1449.857142857143
11
641
21
1455.857142857143
0
LINE
8
0-2
10
641
20
1455.857142857143
11
441
21
1455.857142857143
0
LINE
8
0-2
10
441
20
1455.857142857143
11
441
21
1449.857142857143
0
LINE
8
F-1
10
341
20
35
11
741
21
35
0
LINE
8
F-1
10
741
20
35
11
741
21
2035
0
LINE
8
F-1
10
741
20
2035
11
341
21
2035
0
LINE
8
F-1
10
341
20
2035
11
341
21
35
0
LINE
8
F-F
10
341
20
-15
11
741
21
-15
0
LINE
8
F-F
10
341
20
-5
11
341
21
-25
0
LINE
8
F-F
10
741
20
-5
11
741
21
-25
0
TEXT
8
F-F
10
501
20
0
40
20
1
W 400
0
LINE
8
F-F
10
441
20
-65
11
641
21
-65
0
LINE
8
F-F
10
441
20
-57
11
441
21
-73
0
LINE
8
F-F
10
641
20
-57
11
641
21
-73
0
TEXT
8
F-F
10
511
20
-53
40
18
1
200
0
LINE
8
F-F
10
291
20
35
11
291
21
2035
0
LINE
8
F-F
10
281
20
35
11
301
21
35
0
LINE
8
F-F
10
281
20
2035
11
301
21
2035
0
TEXT
8
F-F
10
251
20
1045
40
20
1
H 2000
0
LINE
8
F-F
10
241
20
95
11
241
21
1975
0
LINE
8
F-F
10
233
20
95
11
249
21
95
0
LINE
8
F-F
10
233
20
1975
11
249
21
1975
0
TEXT
8
F-F
10
211
20
1043
40
18
1
1880
0
LINE
8
F-0
10
280
20
120
11
340
21
120
0
LINE
8
F-0
10
340
20
120
11
340
21
132
0
LINE
8
F-0
10
340
20
132
11
280
21
132
0
LINE
8
F-0
10
280
20
132
11
280
21
120
0
TEXT
8
F-0
10
285
20
123
40
8
1
D-3
0
TEXT
8
F-0
10
345
20
123
40
6
1
新規建具
0
TEXT
8
F-0
10
280
20
-15
40
5
1
Spec:
0
SOLID
8
1-E
62
150
10
50
20
176
11
100
21
176
12
100
22
1276
13
50
23
1276
0
SOLID
8
1-E
62
150
10
600
20
176
11
650
21
176
12
650
22
1276
13
600
23
1276
0
SOLID
8
1-E
62
150
10
100
20
1206
11
600
21
1206
12
600
22
1276
13
100
23
1276
0
SOLID
8
1-E
62
150
10
100
20
176
11
600
21
176
12
600
22
266
13
100
23
266
0
SOLID
8
1-E
62
150
10
100
20
386
11
600
21
386
12
600
22
416
13
100
23
416
0
SOLID
8
1-E
62
150
10
246.66666666666666
20
266
11
276.66666666666663
21
266
12
276.66666666666663
22
386
13
246.66666666666666
23
386
0
SOLID
8
1-E
62
150
10
423.3333333333333
20
266
11
453.3333333333333
21
266
12
453.3333333333333
22
386
13
423.3333333333333
23
386
0
SOLID
8
1-E
62
150
10
150.22222222222223
20
416
11
156.22222222222223
21
416
12
156.22222222222223
22
1206
13
150.22222222222223
23
1206
0
SOLID
8
1-E
62
150
10
206.44444444444446
20
416
11
212.44444444444446
21
416
12
212.44444444444446
22
1206
13
206.44444444444446
23
1206
0
SOLID
8
1-E
62
150
10
262.6666666666667
20
416
11
268.6666666666667
21
416
12
268.6666666666667
22
1206
13
262.6666666666667
23
1206
0
SOLID
8
1-E
62
150
10
318.8888888888889
20
416
11
324.8888888888889
21
416
12
324.8888888888889
22
1206
13
318.8888888888889
23
1206
0
SOLID
8
1-E
62
150
10
375.11111111111114
20
416
11
381.11111111111114
21
416
12
381.11111111111114
22
1206
13
375.11111111111114
23
1206
0
SOLID
8
1-E
62
150
10
431.33333333333337
20
416
11
437.33333333333337
21
416
12
437.33333333333337
22
1206
13
431.33333333333337
23
1206
0
SOLID
8
1-E
62
150
10
487.5555555555556
20
416
11
493.5555555555556
21
416
12
493.5555555555556
22
1206
13
487.5555555555556
23
1206
0
SOLID
8
1-E
62
150
10
543.7777777777778
20
416
11
549.7777777777778
21
416
12
549.7777777777778
22
1206
13
543.7777777777778
23
1206
0
SOLID
8
1-E
62
150
10
100
20
1007
11
600
21
1007
12
600
22
1013
13
100
23
1013
0
SOLID
8
1-E
62
150
10
100
20
808
11
600
21
808
12
600
22
814
13
100
23
814
0
SOLID
8
1-E
62
150
10
100
20
609
11
600
21
609
12
600
22
615
13
100
23
615
0
LINE
8
1-2
10
50
20
176
11
100
21
176
0
LINE
8
1-2
10
100
20
176
11
100
21
1276
0
LINE
8
1-2
10
100
20
1276
11
50
21
1276
0
LINE
8
1-2
10
50
20
1276
11
50
21
176
0
LINE
8
1-2
10
600
20
176
11
650
21
176
0
LINE
8
1-2
10
650
20
176
11
650
21
1276
0
LINE
8
1-2
10
650
20
1276
11
600
21
1276
0
LINE
8
1-2
10
600
20
1276
11
600
21
176
0
LINE
8
1-2
10
100
20
1206
11
600
21
1206
0
LINE
8
1-2
10
600
20
1206
11
600
21
1276
0
LINE
8
1-2
10
600
20
1276
11
100
21
1276
0
LINE
8
1-2
10
100
20
1276
11
100
21
1206
0
LINE
8
1-2
10
100
20
176
11
600
21
176
0
LINE
8
1-2
10
600
20
176
11
600
21
266
0
LINE
8
1-2
10
600
20
266
11
100
21
266
0
LINE
8
1-2
10
100
20
266
11
100
21
176
0
LINE
8
1-2
10
100
20
386
11
600
21
386
0
LINE
8
1-2
10
600
20
386
11
600
21
416
0
LINE
8
1-2
10
600
20
416
11
100
21
416
0
LINE
8
1-2
10
100
20
416
11
100
21
386
0
LINE
8
1-2
10
246.66666666666666
20
266
11
276.66666666666663
21
266
0
LINE
8
1-2
10
276.66666666666663
20
266
11
276.66666666666663
21
386
0
LINE
8
1-2
10
276.66666666666663
20
386
11
246.66666666666666
21
386
0
LINE
8
1-2
10
246.66666666666666
20
386
11
246.66666666666666
21
266
0
LINE
8
1-2
10
423.3333333333333
20
266
11
453.3333333333333
21
266
0
LINE
8
1-2
10
453.3333333333333
20
266
11
453.3333333333333
21
386
0
LINE
8
1-2
10
453.3333333333333
20
386
11
423.3333333333333
21
386
0
LINE
8
1-2
10
423.3333333333333
20
386
11
423.3333333333333
21
266
0
LINE
8
1-2
10
150.22222222222223
20
416
11
156.22222222222223
21
416
0
LINE
8
1-2
10
156.22222222222223
20
416
11
156.22222222222223
21
1206
0
LINE
8
1-2
10
156.22222222222223
20
1206
11
150.22222222222223
21
1206
0
LINE
8
1-2
10
150.22222222222223
20
1206
11
150.22222222222223
21
416
0
LINE
8
1-2
10
206.44444444444446
20
416
11
212.44444444444446
21
416
0
LINE
8
1-2
10
212.44444444444446
20
416
11
212.44444444444446
21
1206
0
LINE
8
1-2
10
212.44444444444446
20
1206
11
206.44444444444446
21
1206
0
LINE
8
1-2
10
206.44444444444446
20
1206
11
206.44444444444446
21
416
0
LINE
8
1-2
10
262.6666666666667
20
416
11
268.6666666666667
21
416
0
LINE
8
1-2
10
268.6666666666667
20
416
11
268.6666666666667
21
1206
0
LINE
8
1-2
10
268.6666666666667
20
1206
11
262.6666666666667
21
1206
0
LINE
8
1-2
10
262.6666666666667
20
1206
11
262.6666666666667
21
416
0
LINE
8
1-2
10
318.8888888888889
20
416
11
324.8888888888889
21
416
0
LINE
8
1-2
10
324.8888888888889
20
416
11
324.8888888888889
21
1206
0
LINE
8
1-2
10
324.8888888888889
20
1206
11
318.8888888888889
21
1206
0
LINE
8
1-2
10
318.8888888888889
20
1206
11
318.8888888888889
21
416
0
LINE
8
1-2
10
375.11111111111114
20
416
11
381.11111111111114
21
416
0
LINE
8
1-2
10
381.11111111111114
20
416
11
381.11111111111114
21
1206
0
LINE
8
1-2
10
381.11111111111114
20
1206
11
375.11111111111114
21
1206
0
LINE
8
1-2
10
375.11111111111114
20
1206
11
375.11111111111114
21
416
0
LINE
8
1-2
10
431.33333333333337
20
416
11
437.33333333333337
21
416
0
LINE
8
1-2
10
437.33333333333337
20
416
11
437.33333333333337
21
1206
0
LINE
8
1-2
10
437.33333333333337
20
1206
11
431.33333333333337
21
1206
0
LINE
8
1-2
10
431.33333333333337
20
1206
11
431.33333333333337
21
416
0
LINE
8
1-2
10
487.5555555555556
20
416
11
493.5555555555556
21
416
0
LINE
8
1-2
10
493.5555555555556
20
416
11
493.5555555555556
21
1206
0
LINE
8
1-2
10
493.5555555555556
20
1206
11
487.5555555555556
21
1206
0
LINE
8
1-2
10
487.5555555555556
20
1206
11
487.5555555555556
21
416
0
LINE
8
1-2
10
543.7777777777778
20
416
11
549.7777777777778
21
416
0
LINE
8
1-2
10
549.7777777777778
20
416
11
549.7777777777778
21
1206
0
LINE
8
1-2
10
549.7777777777778
20
1206
11
543.7777777777778
21
1206
0
LINE
8
1-2
10
543.7777777777778
20
1206
11
543.7777777777778
21
416
0
LINE
8
1-2
10
100
20
1007
11
600
21
1007
0
LINE
8
1-2
10
600
20
1007
11
600
21
1013
0
LINE
8
1-2
10
600
20
1013
11
100
21
1013
0
LINE
8
1-2
10
100
20
1013
11
100
21
1007
0
LINE
8
1-2
10
100
20
808
11
600
21
808
0
LINE
8
1-2
10
600
20
808
11
600
21
814
0
LINE
8
1-2
10
600
20
814
11
100
21
814
0
LINE
8
1-2
10
100
20
814
11
100
21
808
0
LINE
8
1-2
10
100
20
609
11
600
21
609
0
LINE
8
1-2
10
600
20
609
11
600
21
615
0
LINE
8
1-2
10
600
20
615
11
100
21
615
0
LINE
8
1-2
10
100
20
615
11
100
21
609
0
LINE
8
F-1
10
50
20
176
11
650
21
176
0
LINE
8
F-1
10
650
20
176
11
650
21
1276
0
LINE
8
F-1
10
650
20
1276
11
50
21
1276
0
LINE
8
F-1
10
50
20
1276
11
50
21
176
0
LINE
8
F-F
10
50
20
126
11
650
21
126
0
LINE
8
F-F
10
50
20
136
11
50
21
116
0
LINE
8
F-F
10
650
20
136
11
650
21
116
0
TEXT
8
F-F
10
310
20
141
40
20
1
W 600
0
LINE
8
F-F
10
100
20
76
11
600
21
76
0
LINE
8
F-F
10
100
20
84
11
100
21
68
0
LINE
8
F-F
10
600
20
84
11
600
21
68
0
TEXT
8
F-F
10
320
20
88
40
18
1
500
0
LINE
8
F-F
10
0
20
176
11
0
21
1276
0
LINE
8
F-F
10
-10
20
176
11
10
21
176
0
LINE
8
F-F
10
-10
20
1276
11
10
21
1276
0
TEXT
8
F-F
10
-40
20
736
40
20
1
H 1100
0
LINE
8
F-F
10
-50
20
266
11
-50
21
1206
0
LINE
8
F-F
10
-58
20
266
11
-42
21
266
0
LINE
8
F-F
10
-58
20
1206
11
-42
21
1206
0
TEXT
8
F-F
10
-80
20
744
40
18
1
940
0
LINE
8
F-0
10
0
20
268.5
11
60
21
268.5
0
LINE
8
F-0
10
60
20
268.5
11
60
21
280.5
0
LINE
8
F-0
10
60
20
280.5
11
0
21
280.5
0
LINE
8
F-0
10
0
20
280.5
11
0
21
268.5
0
TEXT
8
F-0
10
5
20
271.5
40
8
1
D-4
0
TEXT
8
F-0
10
65
20
271.5
40
6
1
新規建具
0
TEXT
8
F-0
10
0
20
133.5
40
5
1
Spec:
0
SOLID
8
0-E
62
150
10
195
20
179.5
11
265
21
179.5
12
265
22
2579.5
13
195
23
2579.5
0
SOLID
8
0-E
62
150
10
1125
20
179.5
11
1195
21
179.5
12
1195
22
2579.5
13
1125
23
2579.5
0
SOLID
8
0-E
62
150
10
265
20
2519.5
11
1125
21
2519.5
12
1125
22
2579.5
13
265
23
2579.5
0
SOLID
8
0-E
62
150
10
265
20
179.5
11
1125
21
179.5
12
1125
22
239.5
13
265
23
239.5
0
SOLID
8
0-E
62
150
10
346.25
20
239.5
11
376.25
21
239.5
12
376.25
22
2519.5
13
346.25
23
2519.5
0
SOLID
8
0-E
62
150
10
457.5
20
239.5
11
487.5
21
239.5
12
487.5
22
2519.5
13
457.5
23
2519.5
0
SOLID
8
0-E
62
150
10
568.75
20
239.5
11
598.75
21
239.5
12
598.75
22
2519.5
13
568.75
23
2519.5
0
SOLID
8
0-E
62
150
10
680
20
239.5
11
710
21
239.5
12
710
22
2519.5
13
680
23
2519.5
0
SOLID
8
0-E
62
150
10
791.25
20
239.5
11
821.25
21
239.5
12
821.25
22
2519.5
13
791.25
23
2519.5
0
SOLID
8
0-E
62
150
10
902.5
20
239.5
11
932.5
21
239.5
12
932.5
22
2519.5
13
902.5
23
2519.5
0
SOLID
8
0-E
62
150
10
1013.75
20
239.5
11
1043.75
21
239.5
12
1043.75
22
2519.5
13
1013.75
23
2519.5
0
LINE
8
0-2
10
195
20
179.5
11
265
21
179.5
0
LINE
8
0-2
10
265
20
179.5
11
265
21
2579.5
0
LINE
8
0-2
10
265
20
2579.5
11
195
21
2579.5
0
LINE
8
0-2
10
195
20
2579.5
11
195
21
179.5
0
LINE
8
0-2
10
1125
20
179.5
11
1195
21
179.5
0
LINE
8
0-2
10
1195
20
179.5
11
1195
21
2579.5
0
LINE
8
0-2
10
1195
20
2579.5
11
1125
21
2579.5
0
LINE
8
0-2
10
1125
20
2579.5
11
1125
21
179.5
0
LINE
8
0-2
10
265
20
2519.5
11
1125
21
2519.5
0
LINE
8
0-2
10
1125
20
2519.5
11
1125
21
2579.5
0
LINE
8
0-2
10
1125
20
2579.5
11
265
21
2579.5
0
LINE
8
0-2
10
265
20
2579.5
11
265
21
2519.5
0
LINE
8
0-2
10
265
20
179.5
11
1125
21
179.5
0
LINE
8
0-2
10
1125
20
179.5
11
1125
21
239.5
0
LINE
8
0-2
10
1125
20
239.5
11
265
21
239.5
0
LINE
8
0-2
10
265
20
239.5
11
265
21
179.5
0
LINE
8
0-2
10
346.25
20
239.5
11
376.25
21
239.5
0
LINE
8
0-2
10
376.25
20
239.5
11
376.25
21
2519.5
0
LINE
8
0-2
10
376.25
20
2519.5
11
346.25
21
2519.5
0
LINE
8
0-2
10
346.25
20
2519.5
11
346.25
21
239.5
0
LINE
8
0-2
10
457.5
20
239.5
11
487.5
21
239.5
0
LINE
8
0-2
10
487.5
20
239.5
11
487.5
21
2519.5
0
LINE
8
0-2
10
487.5
20
2519.5
11
457.5
21
2519.5
0
LINE
8
0-2
10
457.5
20
2519.5
11
457.5
21
239.5
0
LINE
8
0-2
10
568.75
20
239.5
11
598.75
21
239.5
0
LINE
8
0-2
10
598.75
20
239.5
11
598.75
21
2519.5
0
LINE
8
0-2
10
598.75
20
2519.5
11
568.75
21
2519.5
0
LINE
8
0-2
10
568.75
20
2519.5
11
568.75
21
239.5
0
LINE
8
0-2
10
680
20
239.5
11
710
21
239.5
0
LINE
8
0-2
10
710
20
239.5
11
710
21
2519.5
0
LINE
8
0-2
10
710
20
2519.5
11
680
21
2519.5
0
LINE
8
0-2
10
680
20
2519.5
11
680
21
239.5
0
LINE
8
0-2
10
791.25
20
239.5
11
821.25
21
239.5
0
LINE
8
0-2
10
821.25
20
239.5
11
821.25
21
2519.5
0
LINE
8
0-2
10
821.25
20
2519.5
11
791.25
21
2519.5
0
LINE
8
0-2
10
791.25
20
2519.5
11
791.25
21
239.5
0
LINE
8
0-2
10
902.5
20
239.5
11
932.5
21
239.5
0
LINE
8
0-2
10
932.5
20
239.5
11
932.5
21
2519.5
0
LINE
8
0-2
10
932.5
20
2519.5
11
902.5
21
2519.5
0
LINE
8
0-2
10
902.5
20
2519.5
11
902.5
21
239.5
0
LINE
8
0-2
10
1013.75
20
239.5
11
1043.75
21
239.5
0
LINE
8
0-2
10
1043.75
20
239.5
11
1043.75
21
2519.5
0
LINE
8
0-2
10
1043.75
20
2519.5
11
1013.75
21
2519.5
0
LINE
8
0-2
10
1013.75
20
2519.5
11
1013.75
21
239.5
0
LINE
8
F-1
10
195
20
179.5
11
1195
21
179.5
0
LINE
8
F-1
10
1195
20
179.5
11
1195
21
2579.5
0
LINE
8
F-1
10
1195
20
2579.5
11
195
21
2579.5
0
LINE
8
F-1
10
195
20
2579.5
11
195
21
179.5
0
LINE
8
F-F
10
195
20
129.5
11
1195
21
129.5
0
LINE
8
F-F
10
195
20
139.5
11
195
21
119.5
0
LINE
8
F-F
10
1195
20
139.5
11
1195
21
119.5
0
TEXT
8
F-F
10
655
20
144.5
40
20
1
W 1000
0
LINE
8
F-F
10
265
20
79.5
11
1125
21
79.5
0
LINE
8
F-F
10
265
20
87.5
11
265
21
71.5
0
LINE
8
F-F
10
1125
20
87.5
11
1125
21
71.5
0
TEXT
8
F-F
10
665
20
91.5
40
18
1
860
0
LINE
8
F-F
10
145
20
179.5
11
145
21
2579.5
0
LINE
8
F-F
10
135
20
179.5
11
155
21
179.5
0
LINE
8
F-F
10
135
20
2579.5
11
155
21
2579.5
0
TEXT
8
F-F
10
105
20
1389.5
40
20
1
H 2400
0
LINE
8
F-F
10
95
20
239.5
11
95
21
2519.5
0
LINE
8
F-F
10
87
20
239.5
11
103
21
239.5
0
LINE
8
F-F
10
87
20
2519.5
11
103
21
2519.5
0
TEXT
8
F-F
10
65
20
1387.5
40
18
1
2280
0
LINE
8
F-0
10
140
20
268.5
11
200
21
268.5
0
LINE
8
F-0
10
200
20
268.5
11
200
21
280.5
0
LINE
8
F-0
10
200
20
280.5
11
140
21
280.5
0
LINE
8
F-0
10
140
20
280.5
11
140
21
268.5
0
TEXT
8
F-0
10
145
20
271.5
40
8
1
D-5
0
TEXT
8
F-0
10
205
20
271.5
40
6
1
玄関ルーバー
0
TEXT
8
F-0
10
140
20
133.5
40
5
1
Spec:
0
ENDSEC
0
EOF