0
SECTION
2
HEADER
9
$ACADVER
1
AC1009
9
$INSUNITS
70
4
0
ENDSEC
0
SECTION
2
TABLES
0
TABLE
2
LAYER
0
LAYER
2
0-2
70
0
62
7
6
CONTINUOUS
0
LAYER
2
0-E
70
0
62
7
6
CONTINUOUS
0
LAYER
2
8-F
70
0
62
4
6
CONTINUOUS
0
LAYER
2
8-0
70
0
62
4
6
CONTINUOUS
0
LAYER
2
8-1
70
0
62
7
6
CONTINUOUS
0
LAYER
2
5_SCALE
70
0
62
3
6
CONTINUOUS
0
ENDTAB
0
ENDSEC
0
SECTION
2
ENTITIES
0
SOLID
8
0-E
62
150
10
53
20
25
11
55.1
21
25
12
55.1
22
85
13
53
23
85
0
SOLID
8
0-E
62
150
10
74.9
20
25
11
77
21
25
12
77
22
85
13
74.9
23
85
0
SOLID
8
0-E
62
150
10
55.1
20
82.6
11
74.9
21
82.6
12
74.9
22
85
13
55.1
23
85
0
SOLID
8
0-E
62
150
10
55.1
20
25
11
74.9
21
25
12
74.9
22
28.6
13
55.1
23
28.6
0
SOLID
8
0-E
62
150
10
55.1
20
75.7375
11
74.9
21
75.7375
12
74.9
22
76.6375
13
55.1
23
76.6375
0
SOLID
8
0-E
62
150
10
55.1
20
68.875
11
74.9
21
68.875
12
74.9
22
69.775
13
55.1
23
69.775
0
SOLID
8
0-E
62
150
10
55.1
20
62.012499999999996
11
74.9
21
62.012499999999996
12
74.9
22
62.912499999999994
13
55.1
23
62.912499999999994
0
SOLID
8
0-E
62
150
10
55.1
20
55.15
11
74.9
21
55.15
12
74.9
22
56.05
13
55.1
23
56.05
0
SOLID
8
0-E
62
150
10
55.1
20
48.287499999999994
11
74.9
21
48.287499999999994
12
74.9
22
49.18749999999999
13
55.1
23
49.18749999999999
0
SOLID
8
0-E
62
150
10
55.1
20
41.425
11
74.9
21
41.425
12
74.9
22
42.324999999999996
13
55.1
23
42.324999999999996
0
SOLID
8
0-E
62
150
10
55.1
20
34.5625
11
74.9
21
34.5625
12
74.9
22
35.4625
13
55.1
23
35.4625
0
LINE
8
0-2
10
53
20
25
11
55.1
21
25
0
LINE
8
0-2
10
55.1
20
25
11
55.1
21
85
0
LINE
8
0-2
10
55.1
20
85
11
53
21
85
0
LINE
8
0-2
10
53
20
85
11
53
21
25
0
LINE
8
0-2
10
74.9
20
25
11
77
21
25
0
LINE
8
0-2
10
77
20
25
11
77
21
85
0
LINE
8
0-2
10
77
20
85
11
74.9
21
85
0
LINE
8
0-2
10
74.9
20
85
11
74.9
21
25
0
LINE
8
0-2
10
55.1
20
82.6
11
74.9
21
82.6
0
LINE
8
0-2
10
74.9
20
82.6
11
74.9
21
85
0
LINE
8
0-2
10
74.9
20
85
11
55.1
21
85
0
LINE
8
0-2
10
55.1
20
85
11
55.1
21
82.6
0
LINE
8
0-2
10
55.1
20
25
11
74.9
21
25
0
LINE
8
0-2
10
74.9
20
25
11
74.9
21
28.6
0
LINE
8
0-2
10
74.9
20
28.6
11
55.1
21
28.6
0
LINE
8
0-2
10
55.1
20
28.6
11
55.1
21
25
0
LINE
8
0-2
10
55.1
20
75.7375
11
74.9
21
75.7375
0
LINE
8
0-2
10
74.9
20
75.7375
11
74.9
21
76.6375
0
LINE
8
0-2
10
74.9
20
76.6375
11
55.1
21
76.6375
0
LINE
8
0-2
10
55.1
20
76.6375
11
55.1
21
75.7375
0
LINE
8
0-2
10
55.1
20
68.875
11
74.9
21
68.875
0
LINE
8
0-2
10
74.9
20
68.875
11
74.9
21
69.775
0
LINE
8
0-2
10
74.9
20
69.775
11
55.1
21
69.775
0
LINE
8
0-2
10
55.1
20
69.775
11
55.1
21
68.875
0
LINE
8
0-2
10
55.1
20
62.012499999999996
11
74.9
21
62.012499999999996
0
LINE
8
0-2
10
74.9
20
62.012499999999996
11
74.9
21
62.912499999999994
0
LINE
8
0-2
10
74.9
20
62.912499999999994
11
55.1
21
62.912499999999994
0
LINE
8
0-2
10
55.1
20
62.912499999999994
11
55.1
21
62.012499999999996
0
LINE
8
0-2
10
55.1
20
55.15
11
74.9
21
55.15
0
LINE
8
0-2
10
74.9
20
55.15
11
74.9
21
56.05
0
LINE
8
0-2
10
74.9
20
56.05
11
55.1
21
56.05
0
LINE
8
0-2
10
55.1
20
56.05
11
55.1
21
55.15
0
LINE
8
0-2
10
55.1
20
48.287499999999994
11
74.9
21
48.287499999999994
0
LINE
8
0-2
10
74.9
20
48.287499999999994
11
74.9
21
49.18749999999999
0
LINE
8
0-2
10
74.9
20
49.18749999999999
11
55.1
21
49.18749999999999
0
LINE
8
0-2
10
55.1
20
49.18749999999999
11
55.1
21
48.287499999999994
0
LINE
8
0-2
10
55.1
20
41.425
11
74.9
21
41.425
0
LINE
8
0-2
10
74.9
20
41.425
11
74.9
21
42.324999999999996
0
LINE
8
0-2
10
74.9
20
42.324999999999996
11
55.1
21
42.324999999999996
0
LINE
8
0-2
10
55.1
20
42.324999999999996
11
55.1
21
41.425
0
LINE
8
0-2
10
55.1
20
34.5625
11
74.9
21
34.5625
0
LINE
8
0-2
10
74.9
20
34.5625
11
74.9
21
35.4625
0
LINE
8
0-2
10
74.9
20
35.4625
11
55.1
21
35.4625
0
LINE
8
0-2
10
55.1
20
35.4625
11
55.1
21
34.5625
0
LINE
8
8-1
10
53
20
25
11
77
21
25
0
LINE
8
8-1
10
77
20
25
11
77
21
85
0
LINE
8
8-1
10
77
20
85
11
53
21
85
0
LINE
8
8-1
10
53
20
85
11
53
21
25
0
LINE
8
8-F
10
53
20
23.5
11
77
21
23.5
0
LINE
8
8-F
10
53
20
33.5
11
53
21
13.5
0
LINE
8
8-F
10
77
20
33.5
11
77
21
13.5
0
TEXT
8
8-F
10
25
20
38.5
40
0.6
1
W 800
0
LINE
8
8-F
10
55.1
20
22
11
74.9
21
22
0
LINE
8
8-F
10
55.1
20
30
11
55.1
21
14
0
LINE
8
8-F
10
74.9
20
30
11
74.9
21
14
0
TEXT
8
8-F
10
35
20
34
40
0.54
1
660
0
LINE
8
8-F
10
51.5
20
25
11
51.5
21
85
0
LINE
8
8-F
10
41.5
20
25
11
61.5
21
25
0
LINE
8
8-F
10
41.5
20
85
11
61.5
21
85
0
TEXT
8
8-F
10
11.5
20
65
40
0.6
1
H 2000
0
LINE
8
8-F
10
50
20
28.6
11
50
21
82.6
0
LINE
8
8-F
10
42
20
28.6
11
58
21
28.6
0
LINE
8
8-F
10
42
20
82.6
11
58
21
82.6
0
TEXT
8
8-F
10
20
20
63.6
40
0.54
1
1800
0
LINE
8
8-0
10
0
20
120
11
60
21
120
0
LINE
8
8-0
10
60
20
120
11
60
21
132
0
LINE
8
8-0
10
60
20
132
11
0
21
132
0
LINE
8
8-0
10
0
20
132
11
0
21
120
0
TEXT
8
8-0
10
5
20
123
40
8
1
D-1
0
TEXT
8
8-0
10
65
20
123
40
6
1
掃き出し窓
0
TEXT
8
8-0
10
0
20
-15
40
5
1
Spec:
0
SOLID
8
0-E
62
150
10
193
20
25
11
196
21
25
12
196
22
85
13
193
23
85
0
SOLID
8
0-E
62
150
10
214
20
25
11
217
21
25
12
217
22
85
13
214
23
85
0
SOLID
8
0-E
62
150
10
196
20
82
11
214
21
82
12
214
22
85
13
196
23
85
0
SOLID
8
0-E
62
150
10
196
20
25
11
214
21
25
12
214
22
31
13
196
23
31
0
SOLID
8
0-E
62
180
10
198.25
20
31
11
199.15
21
31
12
199.15
22
82
13
198.25
23
82
0
SOLID
8
0-E
62
180
10
201.4
20
31
11
202.3
21
31
12
202.3
22
82
13
201.4
23
82
0
SOLID
8
0-E
62
180
10
204.55
20
31
11
205.45000000000002
21
31
12
205.45000000000002
22
82
13
204.55
23
82
0
SOLID
8
0-E
62
180
10
207.7
20
31
11
208.6
21
31
12
208.6
22
82
13
207.7
23
82
0
SOLID
8
0-E
62
180
10
210.85
20
31
11
211.75
21
31
12
211.75
22
82
13
210.85
23
82
0
LINE
8
0-2
10
193
20
25
11
196
21
25
0
LINE
8
0-2
10
196
20
25
11
196
21
85
0
LINE
8
0-2
10
196
20
85
11
193
21
85
0
LINE
8
0-2
10
193
20
85
11
193
21
25
0
LINE
8
0-2
10
214
20
25
11
217
21
25
0
LINE
8
0-2
10
217
20
25
11
217
21
85
0
LINE
8
0-2
10
217
20
85
11
214
21
85
0
LINE
8
0-2
10
214
20
85
11
214
21
25
0
LINE
8
0-2
10
196
20
82
11
214
21
82
0
LINE
8
0-2
10
214
20
82
11
214
21
85
0
LINE
8
0-2
10
214
20
85
11
196
21
85
0
LINE
8
0-2
10
196
20
85
11
196
21
82
0
LINE
8
0-2
10
196
20
25
11
214
21
25
0
LINE
8
0-2
10
214
20
25
11
214
21
31
0
LINE
8
0-2
10
214
20
31
11
196
21
31
0
LINE
8
0-2
10
196
20
31
11
196
21
25
0
LINE
8
0-2
10
198.25
20
31
11
199.15
21
31
0
LINE
8
0-2
10
199.15
20
31
11
199.15
21
82
0
LINE
8
0-2
10
199.15
20
82
11
198.25
21
82
0
LINE
8
0-2
10
198.25
20
82
11
198.25
21
31
0
LINE
8
0-2
10
201.4
20
31
11
202.3
21
31
0
LINE
8
0-2
10
202.3
20
31
11
202.3
21
82
0
LINE
8
0-2
10
202.3
20
82
11
201.4
21
82
0
LINE
8
0-2
10
201.4
20
82
11
201.4
21
31
0
LINE
8
0-2
10
204.55
20
31
11
205.45000000000002
21
31
0
LINE
8
0-2
10
205.45000000000002
20
31
11
205.45000000000002
21
82
0
LINE
8
0-2
10
205.45000000000002
20
82
11
204.55
21
82
0
LINE
8
0-2
10
204.55
20
82
11
204.55
21
31
0
LINE
8
0-2
10
207.7
20
31
11
208.6
21
31
0
LINE
8
0-2
10
208.6
20
31
11
208.6
21
82
0
LINE
8
0-2
10
208.6
20
82
11
207.7
21
82
0
LINE
8
0-2
10
207.7
20
82
11
207.7
21
31
0
LINE
8
0-2
10
210.85
20
31
11
211.75
21
31
0
LINE
8
0-2
10
211.75
20
31
11
211.75
21
82
0
LINE
8
0-2
10
211.75
20
82
11
210.85
21
82
0
LINE
8
0-2
10
210.85
20
82
11
210.85
21
31
0
LINE
8
8-1
10
193
20
25
11
217
21
25
0
LINE
8
8-1
10
217
20
25
11
217
21
85
0
LINE
8
8-1
10
217
20
85
11
193
21
85
0
LINE
8
8-1
10
193
20
85
11
193
21
25
0
LINE
8
8-F
10
193
20
23.5
11
217
21
23.5
0
LINE
8
8-F
10
193
20
33.5
11
193
21
13.5
0
LINE
8
8-F
10
217
20
33.5
11
217
21
13.5
0
TEXT
8
8-F
10
165
20
38.5
40
0.6
1
W 800
0
LINE
8
8-F
10
196
20
22
11
214
21
22
0
LINE
8
8-F
10
196
20
30
11
196
21
14
0
LINE
8
8-F
10
214
20
30
11
214
21
14
0
TEXT
8
8-F
10
175
20
34
40
0.54
1
600
0
LINE
8
8-F
10
191.5
20
25
11
191.5
21
85
0
LINE
8
8-F
10
181.5
20
25
11
201.5
21
25
0
LINE
8
8-F
10
181.5
20
85
11
201.5
21
85
0
TEXT
8
8-F
10
151.5
20
65
40
0.6
1
H 2000
0
LINE
8
8-F
10
190
20
31
11
190
21
82
0
LINE
8
8-F
10
182
20
31
11
198
21
31
0
LINE
8
8-F
10
182
20
82
11
198
21
82
0
TEXT
8
8-F
10
160
20
64.5
40
0.54
1
1700
0
LINE
8
8-0
10
140
20
120
11
200
21
120
0
LINE
8
8-0
10
200
20
120
11
200
21
132
0
LINE
8
8-0
10
200
20
132
11
140
21
132
0
LINE
8
8-0
10
140
20
132
11
140
21
120
0
TEXT
8
8-0
10
145
20
123
40
8
1
D-2
0
TEXT
8
8-0
10
205
20
123
40
6
1
新規建具
0
TEXT
8
8-0
10
140
20
-15
40
5
1
Spec:
0
SOLID
8
0-E
62
150
10
339
20
25
11
342
21
25
12
342
22
85
13
339
23
85
0
SOLID
8
0-E
62
150
10
348
20
25
11
351
21
25
12
351
22
85
13
348
23
85
0
SOLID
8
0-E
62
150
10
342
20
83.19999999999999
11
348
21
83.19999999999999
12
348
22
84.99999999999999
13
342
23
84.99999999999999
0
SOLID
8
0-E
62
150
10
342
20
25
11
348
21
25
12
348
22
26.8
13
342
23
26.8
0
SOLID
8
0-E
62
150
10
342
20
64.1
11
348
21
64.1
12
348
22
65
13
342
23
65
0
SOLID
8
0-E
62
150
10
342
20
45
11
348
21
45
12
348
22
45.9
13
342
23
45.9
0
SOLID
8
0-E
62
200
10
343.365
20
65
11
343.545
21
65
12
343.545
22
83.2
13
343.365
23
83.2
0
SOLID
8
0-E
62
200
10
344.91
20
65
11
345.09000000000003
21
65
12
345.09000000000003
22
83.2
13
344.91
23
83.2
0
SOLID
8
0-E
62
200
10
346.455
20
65
11
346.635
21
65
12
346.635
22
83.2
13
346.455
23
83.2
0
SOLID
8
0-E
62
200
10
342
20
80.57428571428571
11
348
21
80.57428571428571
12
348
22
80.75428571428571
13
342
23
80.75428571428571
0
SOLID
8
0-E
62
200
10
342
20
77.94857142857143
11
348
21
77.94857142857143
12
348
22
78.12857142857143
13
342
23
78.12857142857143
0
SOLID
8
0-E
62
200
10
342
20
75.32285714285715
11
348
21
75.32285714285715
12
348
22
75.50285714285715
13
342
23
75.50285714285715
0
SOLID
8
0-E
62
200
10
342
20
72.69714285714286
11
348
21
72.69714285714286
12
348
22
72.87714285714287
13
342
23
72.87714285714287
0
SOLID
8
0-E
62
200
10
342
20
70.07142857142857
11
348
21
70.07142857142857
12
348
22
70.25142857142858
13
342
23
70.25142857142858
0
SOLID
8
0-E
62
200
10
342
20
67.44571428571429
11
348
21
67.44571428571429
12
348
22
67.6257142857143
13
342
23
67.6257142857143
0
LINE
8
0-2
10
339
20
25
11
342
21
25
0
LINE
8
0-2
10
342
20
25
11
342
21
85
0
LINE
8
0-2
10
342
20
85
11
339
21
85
0
LINE
8
0-2
10
339
20
85
11
339
21
25
0
LINE
8
0-2
10
348
20
25
11
351
21
25
0
LINE
8
0-2
10
351
20
25
11
351
21
85
0
LINE
8
0-2
10
351
20
85
11
348
21
85
0
LINE
8
0-2
10
348
20
85
11
348
21
25
0
LINE
8
0-2
10
342
20
83.19999999999999
11
348
21
83.19999999999999
0
LINE
8
0-2
10
348
20
83.19999999999999
11
348
21
84.99999999999999
0
LINE
8
0-2
10
348
20
84.99999999999999
11
342
21
84.99999999999999
0
LINE
8
0-2
10
342
20
84.99999999999999
11
342
21
83.19999999999999
0
LINE
8
0-2
10
342
20
25
11
348
21
25
0
LINE
8
0-2
10
348
20
25
11
348
21
26.8
0
LINE
8
0-2
10
348
20
26.8
11
342
21
26.8
0
LINE
8
0-2
10
342
20
26.8
11
342
21
25
0
LINE
8
0-2
10
342
20
64.1
11
348
21
64.1
0
LINE
8
0-2
10
348
20
64.1
11
348
21
65
0
LINE
8
0-2
10
348
20
65
11
342
21
65
0
LINE
8
0-2
10
342
20
65
11
342
21
64.1
0
LINE
8
0-2
10
342
20
45
11
348
21
45
0
LINE
8
0-2
10
348
20
45
11
348
21
45.9
0
LINE
8
0-2
10
348
20
45.9
11
342
21
45.9
0
LINE
8
0-2
10
342
20
45.9
11
342
21
45
0
LINE
8
0-2
10
343.365
20
65
11
343.545
21
65
0
LINE
8
0-2
10
343.545
20
65
11
343.545
21
83.2
0
LINE
8
0-2
10
343.545
20
83.2
11
343.365
21
83.2
0
LINE
8
0-2
10
343.365
20
83.2
11
343.365
21
65
0
LINE
8
0-2
10
344.91
20
65
11
345.09000000000003
21
65
0
LINE
8
0-2
10
345.09000000000003
20
65
11
345.09000000000003
21
83.2
0
LINE
8
0-2
10
345.09000000000003
20
83.2
11
344.91
21
83.2
0
LINE
8
0-2
10
344.91
20
83.2
11
344.91
21
65
0
LINE
8
0-2
10
346.455
20
65
11
346.635
21
65
0
LINE
8
0-2
10
346.635
20
65
11
346.635
21
83.2
0
LINE
8
0-2
10
346.635
20
83.2
11
346.455
21
83.2
0
LINE
8
0-2
10
346.455
20
83.2
11
346.455
21
65
0
LINE
8
0-2
10
342
20
80.57428571428571
11
348
21
80.57428571428571
0
LINE
8
0-2
10
348
20
80.57428571428571
11
348
21
80.75428571428571
0
LINE
8
0-2
10
348
20
80.75428571428571
11
342
21
80.75428571428571
0
LINE
8
0-2
10
342
20
80.75428571428571
11
342
21
80.57428571428571
0
LINE
8
0-2
10
342
20
77.94857142857143
11
348
21
77.94857142857143
0
LINE
8
0-2
10
348
20
77.94857142857143
11
348
21
78.12857142857143
0
LINE
8
0-2
10
348
20
78.12857142857143
11
342
21
78.12857142857143
0
LINE
8
0-2
10
342
20
78.12857142857143
11
342
21
77.94857142857143
0
LINE
8
0-2
10
342
20
75.32285714285715
11
348
21
75.32285714285715
0
LINE
8
0-2
10
348
20
75.32285714285715
11
348
21
75.50285714285715
0
LINE
8
0-2
10
348
20
75.50285714285715
11
342
21
75.50285714285715
0
LINE
8
0-2
10
342
20
75.50285714285715
11
342
21
75.32285714285715
0
LINE
8
0-2
10
342
20
72.69714285714286
11
348
21
72.69714285714286
0
LINE
8
0-2
10
348
20
72.69714285714286
11
348
21
72.87714285714287
0
LINE
8
0-2
10
348
20
72.87714285714287
11
342
21
72.87714285714287
0
LINE
8
0-2
10
342
20
72.87714285714287
11
342
21
72.69714285714286
0
LINE
8
0-2
10
342
20
70.07142857142857
11
348
21
70.07142857142857
0
LINE
8
0-2
10
348
20
70.07142857142857
11
348
21
70.25142857142858
0
LINE
8
0-2
10
348
20
70.25142857142858
11
342
21
70.25142857142858
0
LINE
8
0-2
10
342
20
70.25142857142858
11
342
21
70.07142857142857
0
LINE
8
0-2
10
342
20
67.44571428571429
11
348
21
67.44571428571429
0
LINE
8
0-2
10
348
20
67.44571428571429
11
348
21
67.6257142857143
0
LINE
8
0-2
10
348
20
67.6257142857143
11
342
21
67.6257142857143
0
LINE
8
0-2
10
342
20
67.6257142857143
11
342
21
67.44571428571429
0
LINE
8
8-1
10
339
20
25
11
351
21
25
0
LINE
8
8-1
10
351
20
25
11
351
21
85
0
LINE
8
8-1
10
351
20
85
11
339
21
85
0
LINE
8
8-1
10
339
20
85
11
339
21
25
0
LINE
8
8-F
10
339
20
23.5
11
351
21
23.5
0
LINE
8
8-F
10
339
20
33.5
11
339
21
13.5
0
LINE
8
8-F
10
351
20
33.5
11
351
21
13.5
0
TEXT
8
8-F
10
305
20
38.5
40
0.6
1
W 400
0
LINE
8
8-F
10
342
20
22
11
348
21
22
0
LINE
8
8-F
10
342
20
30
11
342
21
14
0
LINE
8
8-F
10
348
20
30
11
348
21
14
0
TEXT
8
8-F
10
315
20
34
40
0.54
1
200
0
LINE
8
8-F
10
337.5
20
25
11
337.5
21
85
0
LINE
8
8-F
10
327.5
20
25
11
347.5
21
25
0
LINE
8
8-F
10
327.5
20
85
11
347.5
21
85
0
TEXT
8
8-F
10
297.5
20
65
40
0.6
1
H 2000
0
LINE
8
8-F
10
336
20
26.8
11
336
21
83.2
0
LINE
8
8-F
10
328
20
26.8
11
344
21
26.8
0
LINE
8
8-F
10
328
20
83.2
11
344
21
83.2
0
TEXT
8
8-F
10
306
20
63
40
0.54
1
1880
0
LINE
8
8-0
10
280
20
120
11
340
21
120
0
LINE
8
8-0
10
340
20
120
11
340
21
132
0
LINE
8
8-0
10
340
20
132
11
280
21
132
0
LINE
8
8-0
10
280
20
132
11
280
21
120
0
TEXT
8
8-0
10
285
20
123
40
8
1
D-3
0
TEXT
8
8-0
10
345
20
123
40
6
1
新規建具
0
TEXT
8
8-0
10
280
20
-15
40
5
1
Spec:
0
SOLID
8
0-E
62
150
10
48.63636363636364
20
173.5
11
51.36363636363637
21
173.5
12
51.36363636363637
22
233.5
13
48.63636363636364
23
233.5
0
SOLID
8
0-E
62
150
10
78.63636363636364
20
173.5
11
81.36363636363637
21
173.5
12
81.36363636363637
22
233.5
13
78.63636363636364
23
233.5
0
SOLID
8
0-E
62
150
10
51.36363636363637
20
229.6818181818182
11
78.63636363636364
21
229.6818181818182
12
78.63636363636364
22
233.5
13
51.36363636363637
23
233.5
0
SOLID
8
0-E
62
150
10
51.36363636363637
20
173.5
11
78.63636363636364
21
173.5
12
78.63636363636364
22
178.4090909090909
13
51.36363636363637
23
178.4090909090909
0
SOLID
8
0-E
62
150
10
51.36363636363637
20
184.95454545454544
11
78.63636363636364
21
184.95454545454544
12
78.63636363636364
22
186.59090909090907
13
51.36363636363637
23
186.59090909090907
0
SOLID
8
0-E
62
180
10
59.36363636363637
20
178.4090909090909
11
61
21
178.4090909090909
12
61
22
184.95454545454544
13
59.36363636363637
23
184.95454545454544
0
SOLID
8
0-E
62
180
10
69
20
178.4090909090909
11
70.63636363636364
21
178.4090909090909
12
70.63636363636364
22
184.95454545454544
13
69
23
184.95454545454544
0
SOLID
8
0-E
62
200
10
54.10303030303031
20
186.5909090909091
11
54.43030303030304
21
186.5909090909091
12
54.43030303030304
22
229.6818181818182
13
54.10303030303031
23
229.6818181818182
0
SOLID
8
0-E
62
200
10
57.16969696969697
20
186.5909090909091
11
57.4969696969697
21
186.5909090909091
12
57.4969696969697
22
229.6818181818182
13
57.16969696969697
23
229.6818181818182
0
SOLID
8
0-E
62
200
10
60.23636363636364
20
186.5909090909091
11
60.56363636363637
21
186.5909090909091
12
60.56363636363637
22
229.6818181818182
13
60.23636363636364
23
229.6818181818182
0
SOLID
8
0-E
62
200
10
63.30303030303031
20
186.5909090909091
11
63.63030303030304
21
186.5909090909091
12
63.63030303030304
22
229.6818181818182
13
63.30303030303031
23
229.6818181818182
0
SOLID
8
0-E
62
200
10
66.36969696969697
20
186.5909090909091
11
66.6969696969697
21
186.5909090909091
12
66.6969696969697
22
229.6818181818182
13
66.36969696969697
23
229.6818181818182
0
SOLID
8
0-E
62
200
10
69.43636363636364
20
186.5909090909091
11
69.76363636363637
21
186.5909090909091
12
69.76363636363637
22
229.6818181818182
13
69.43636363636364
23
229.6818181818182
0
SOLID
8
0-E
62
200
10
72.5030303030303
20
186.5909090909091
11
72.83030303030303
21
186.5909090909091
12
72.83030303030303
22
229.6818181818182
13
72.5030303030303
23
229.6818181818182
0
SOLID
8
0-E
62
200
10
75.56969696969698
20
186.5909090909091
11
75.8969696969697
21
186.5909090909091
12
75.8969696969697
22
229.6818181818182
13
75.56969696969698
23
229.6818181818182
0
SOLID
8
0-E
62
200
10
51.36363636363637
20
218.8272727272727
11
78.63636363636364
21
218.8272727272727
12
78.63636363636364
22
219.15454545454543
13
51.36363636363637
23
219.15454545454543
0
SOLID
8
0-E
62
200
10
51.36363636363637
20
207.97272727272727
11
78.63636363636364
21
207.97272727272727
12
78.63636363636364
22
208.29999999999998
13
51.36363636363637
23
208.29999999999998
0
SOLID
8
0-E
62
200
10
51.36363636363637
20
197.11818181818182
11
78.63636363636364
21
197.11818181818182
12
78.63636363636364
22
197.44545454545454
13
51.36363636363637
23
197.44545454545454
0
LINE
8
0-2
10
48.63636363636364
20
173.5
11
51.36363636363637
21
173.5
0
LINE
8
0-2
10
51.36363636363637
20
173.5
11
51.36363636363637
21
233.5
0
LINE
8
0-2
10
51.36363636363637
20
233.5
11
48.63636363636364
21
233.5
0
LINE
8
0-2
10
48.63636363636364
20
233.5
11
48.63636363636364
21
173.5
0
LINE
8
0-2
10
78.63636363636364
20
173.5
11
81.36363636363637
21
173.5
0
LINE
8
0-2
10
81.36363636363637
20
173.5
11
81.36363636363637
21
233.5
0
LINE
8
0-2
10
81.36363636363637
20
233.5
11
78.63636363636364
21
233.5
0
LINE
8
0-2
10
78.63636363636364
20
233.5
11
78.63636363636364
21
173.5
0
LINE
8
0-2
10
51.36363636363637
20
229.6818181818182
11
78.63636363636364
21
229.6818181818182
0
LINE
8
0-2
10
78.63636363636364
20
229.6818181818182
11
78.63636363636364
21
233.5
0
LINE
8
0-2
10
78.63636363636364
20
233.5
11
51.36363636363637
21
233.5
0
LINE
8
0-2
10
51.36363636363637
20
233.5
11
51.36363636363637
21
229.6818181818182
0
LINE
8
0-2
10
51.36363636363637
20
173.5
11
78.63636363636364
21
173.5
0
LINE
8
0-2
10
78.63636363636364
20
173.5
11
78.63636363636364
21
178.4090909090909
0
LINE
8
0-2
10
78.63636363636364
20
178.4090909090909
11
51.36363636363637
21
178.4090909090909
0
LINE
8
0-2
10
51.36363636363637
20
178.4090909090909
11
51.36363636363637
21
173.5
0
LINE
8
0-2
10
51.36363636363637
20
184.95454545454544
11
78.63636363636364
21
184.95454545454544
0
LINE
8
0-2
10
78.63636363636364
20
184.95454545454544
11
78.63636363636364
21
186.59090909090907
0
LINE
8
0-2
10
78.63636363636364
20
186.59090909090907
11
51.36363636363637
21
186.59090909090907
0
LINE
8
0-2
10
51.36363636363637
20
186.59090909090907
11
51.36363636363637
21
184.95454545454544
0
LINE
8
0-2
10
59.36363636363637
20
178.4090909090909
11
61
21
178.4090909090909
0
LINE
8
0-2
10
61
20
178.4090909090909
11
61
21
184.95454545454544
0
LINE
8
0-2
10
61
20
184.95454545454544
11
59.36363636363637
21
184.95454545454544
0
LINE
8
0-2
10
59.36363636363637
20
184.95454545454544
11
59.36363636363637
21
178.4090909090909
0
LINE
8
0-2
10
69
20
178.4090909090909
11
70.63636363636364
21
178.4090909090909
0
LINE
8
0-2
10
70.63636363636364
20
178.4090909090909
11
70.63636363636364
21
184.95454545454544
0
LINE
8
0-2
10
70.63636363636364
20
184.95454545454544
11
69
21
184.95454545454544
0
LINE
8
0-2
10
69
20
184.95454545454544
11
69
21
178.4090909090909
0
LINE
8
0-2
10
54.10303030303031
20
186.5909090909091
11
54.43030303030304
21
186.5909090909091
0
LINE
8
0-2
10
54.43030303030304
20
186.5909090909091
11
54.43030303030304
21
229.6818181818182
0
LINE
8
0-2
10
54.43030303030304
20
229.6818181818182
11
54.10303030303031
21
229.6818181818182
0
LINE
8
0-2
10
54.10303030303031
20
229.6818181818182
11
54.10303030303031
21
186.5909090909091
0
LINE
8
0-2
10
57.16969696969697
20
186.5909090909091
11
57.4969696969697
21
186.5909090909091
0
LINE
8
0-2
10
57.4969696969697
20
186.5909090909091
11
57.4969696969697
21
229.6818181818182
0
LINE
8
0-2
10
57.4969696969697
20
229.6818181818182
11
57.16969696969697
21
229.6818181818182
0
LINE
8
0-2
10
57.16969696969697
20
229.6818181818182
11
57.16969696969697
21
186.5909090909091
0
LINE
8
0-2
10
60.23636363636364
20
186.5909090909091
11
60.56363636363637
21
186.5909090909091
0
LINE
8
0-2
10
60.56363636363637
20
186.5909090909091
11
60.56363636363637
21
229.6818181818182
0
LINE
8
0-2
10
60.56363636363637
20
229.6818181818182
11
60.23636363636364
21
229.6818181818182
0
LINE
8
0-2
10
60.23636363636364
20
229.6818181818182
11
60.23636363636364
21
186.5909090909091
0
LINE
8
0-2
10
63.30303030303031
20
186.5909090909091
11
63.63030303030304
21
186.5909090909091
0
LINE
8
0-2
10
63.63030303030304
20
186.5909090909091
11
63.63030303030304
21
229.6818181818182
0
LINE
8
0-2
10
63.63030303030304
20
229.6818181818182
11
63.30303030303031
21
229.6818181818182
0
LINE
8
0-2
10
63.30303030303031
20
229.6818181818182
11
63.30303030303031
21
186.5909090909091
0
LINE
8
0-2
10
66.36969696969697
20
186.5909090909091
11
66.6969696969697
21
186.5909090909091
0
LINE
8
0-2
10
66.6969696969697
20
186.5909090909091
11
66.6969696969697
21
229.6818181818182
0
LINE
8
0-2
10
66.6969696969697
20
229.6818181818182
11
66.36969696969697
21
229.6818181818182
0
LINE
8
0-2
10
66.36969696969697
20
229.6818181818182
11
66.36969696969697
21
186.5909090909091
0
LINE
8
0-2
10
69.43636363636364
20
186.5909090909091
11
69.76363636363637
21
186.5909090909091
0
LINE
8
0-2
10
69.76363636363637
20
186.5909090909091
11
69.76363636363637
21
229.6818181818182
0
LINE
8
0-2
10
69.76363636363637
20
229.6818181818182
11
69.43636363636364
21
229.6818181818182
0
LINE
8
0-2
10
69.43636363636364
20
229.6818181818182
11
69.43636363636364
21
186.5909090909091
0
LINE
8
0-2
10
72.5030303030303
20
186.5909090909091
11
72.83030303030303
21
186.5909090909091
0
LINE
8
0-2
10
72.83030303030303
20
186.5909090909091
11
72.83030303030303
21
229.6818181818182
0
LINE
8
0-2
10
72.83030303030303
20
229.6818181818182
11
72.5030303030303
21
229.6818181818182
0
LINE
8
0-2
10
72.5030303030303
20
229.6818181818182
11
72.5030303030303
21
186.5909090909091
0
LINE
8
0-2
10
75.56969696969698
20
186.5909090909091
11
75.8969696969697
21
186.5909090909091
0
LINE
8
0-2
10
75.8969696969697
20
186.5909090909091
11
75.8969696969697
21
229.6818181818182
0
LINE
8
0-2
10
75.8969696969697
20
229.6818181818182
11
75.56969696969698
21
229.6818181818182
0
LINE
8
0-2
10
75.56969696969698
20
229.6818181818182
11
75.56969696969698
21
186.5909090909091
0
LINE
8
0-2
10
51.36363636363637
20
218.8272727272727
11
78.63636363636364
21
218.8272727272727
0
LINE
8
0-2
10
78.63636363636364
20
218.8272727272727
11
78.63636363636364
21
219.15454545454543
0
LINE
8
0-2
10
78.63636363636364
20
219.15454545454543
11
51.36363636363637
21
219.15454545454543
0
LINE
8
0-2
10
51.36363636363637
20
219.15454545454543
11
51.36363636363637
21
218.8272727272727
0
LINE
8
0-2
10
51.36363636363637
20
207.97272727272727
11
78.63636363636364
21
207.97272727272727
0
LINE
8
0-2
10
78.63636363636364
20
207.97272727272727
11
78.63636363636364
21
208.29999999999998
0
LINE
8
0-2
10
78.63636363636364
20
208.29999999999998
11
51.36363636363637
21
208.29999999999998
0
LINE
8
0-2
10
51.36363636363637
20
208.29999999999998
11
51.36363636363637
21
207.97272727272727
0
LINE
8
0-2
10
51.36363636363637
20
197.11818181818182
11
78.63636363636364
21
197.11818181818182
0
LINE
8
0-2
10
78.63636363636364
20
197.11818181818182
11
78.63636363636364
21
197.44545454545454
0
LINE
8
0-2
10
78.63636363636364
20
197.44545454545454
11
51.36363636363637
21
197.44545454545454
0
LINE
8
0-2
10
51.36363636363637
20
197.44545454545454
11
51.36363636363637
21
197.11818181818182
0
LINE
8
8-1
10
48.63636363636364
20
173.5
11
81.36363636363637
21
173.5
0
LINE
8
8-1
10
81.36363636363637
20
173.5
11
81.36363636363637
21
233.5
0
LINE
8
8-1
10
81.36363636363637
20
233.5
11
48.63636363636364
21
233.5
0
LINE
8
8-1
10
48.63636363636364
20
233.5
11
48.63636363636364
21
173.5
0
LINE
8
8-F
10
48.63636363636364
20
170.77272727272728
11
81.36363636363637
21
170.77272727272728
0
LINE
8
8-F
10
48.63636363636364
20
180.77272727272728
11
48.63636363636364
21
160.77272727272728
0
LINE
8
8-F
10
81.36363636363637
20
180.77272727272728
11
81.36363636363637
21
160.77272727272728
0
TEXT
8
8-F
10
25
20
185.77272727272728
40
1.0909090909090908
1
W 600
0
LINE
8
8-F
10
51.36363636363637
20
168.04545454545453
11
78.63636363636364
21
168.04545454545453
0
LINE
8
8-F
10
51.36363636363637
20
176.04545454545453
11
51.36363636363637
21
160.04545454545453
0
LINE
8
8-F
10
78.63636363636364
20
176.04545454545453
11
78.63636363636364
21
160.04545454545453
0
TEXT
8
8-F
10
35
20
180.04545454545453
40
0.9818181818181818
1
500
0
LINE
8
8-F
10
45.909090909090914
20
173.5
11
45.909090909090914
21
233.5
0
LINE
8
8-F
10
35.909090909090914
20
173.5
11
55.909090909090914
21
173.5
0
LINE
8
8-F
10
35.909090909090914
20
233.5
11
55.909090909090914
21
233.5
0
TEXT
8
8-F
10
5.909090909090914
20
213.5
40
1.0909090909090908
1
H 1100
0
LINE
8
8-F
10
43.18181818181819
20
178.4090909090909
11
43.18181818181819
21
229.6818181818182
0
LINE
8
8-F
10
35.18181818181819
20
178.4090909090909
11
51.18181818181819
21
178.4090909090909
0
LINE
8
8-F
10
35.18181818181819
20
229.6818181818182
11
51.18181818181819
21
229.6818181818182
0
TEXT
8
8-F
10
13.181818181818187
20
212.04545454545453
40
0.9818181818181818
1
940
0
LINE
8
8-0
10
0
20
268.5
11
60
21
268.5
0
LINE
8
8-0
10
60
20
268.5
11
60
21
280.5
0
LINE
8
8-0
10
60
20
280.5
11
0
21
280.5
0
LINE
8
8-0
10
0
20
280.5
11
0
21
268.5
0
TEXT
8
8-0
10
5
20
271.5
40
8
1
D-4
0
TEXT
8
8-0
10
65
20
271.5
40
6
1
新規建具
0
TEXT
8
8-0
10
0
20
133.5
40
5
1
Spec:
0
SOLID
8
0-E
62
150
10
192.5
20
173.5
11
194.25
21
173.5
12
194.25
22
233.5
13
192.5
23
233.5
0
SOLID
8
0-E
62
150
10
215.75
20
173.5
11
217.5
21
173.5
12
217.5
22
233.5
13
215.75
23
233.5
0
SOLID
8
0-E
62
150
10
194.25
20
232
11
215.75
21
232
12
215.75
22
233.5
13
194.25
23
233.5
0
SOLID
8
0-E
62
150
10
194.25
20
173.5
11
215.75
21
173.5
12
215.75
22
175
13
194.25
23
175
0
SOLID
8
0-E
62
180
10
196.28125
20
175
11
197.03125
21
175
12
197.03125
22
232
13
196.28125
23
232
0
SOLID
8
0-E
62
180
10
199.0625
20
175
11
199.8125
21
175
12
199.8125
22
232
13
199.0625
23
232
0
SOLID
8
0-E
62
180
10
201.84375
20
175
11
202.59375
21
175
12
202.59375
22
232
13
201.84375
23
232
0
SOLID
8
0-E
62
180
10
204.625
20
175
11
205.375
21
175
12
205.375
22
232
13
204.625
23
232
0
SOLID
8
0-E
62
180
10
207.40625
20
175
11
208.15625
21
175
12
208.15625
22
232
13
207.40625
23
232
0
SOLID
8
0-E
62
180
10
210.1875
20
175
11
210.9375
21
175
12
210.9375
22
232
13
210.1875
23
232
0
SOLID
8
0-E
62
180
10
212.96875
20
175
11
213.71875
21
175
12
213.71875
22
232
13
212.96875
23
232
0
LINE
8
0-2
10
192.5
20
173.5
11
194.25
21
173.5
0
LINE
8
0-2
10
194.25
20
173.5
11
194.25
21
233.5
0
LINE
8
0-2
10
194.25
20
233.5
11
192.5
21
233.5
0
LINE
8
0-2
10
192.5
20
233.5
11
192.5
21
173.5
0
LINE
8
0-2
10
215.75
20
173.5
11
217.5
21
173.5
0
LINE
8
0-2
10
217.5
20
173.5
11
217.5
21
233.5
0
LINE
8
0-2
10
217.5
20
233.5
11
215.75
21
233.5
0
LINE
8
0-2
10
215.75
20
233.5
11
215.75
21
173.5
0
LINE
8
0-2
10
194.25
20
232
11
215.75
21
232
0
LINE
8
0-2
10
215.75
20
232
11
215.75
21
233.5
0
LINE
8
0-2
10
215.75
20
233.5
11
194.25
21
233.5
0
LINE
8
0-2
10
194.25
20
233.5
11
194.25
21
232
0
LINE
8
0-2
10
194.25
20
173.5
11
215.75
21
173.5
0
LINE
8
0-2
10
215.75
20
173.5
11
215.75
21
175
0
LINE
8
0-2
10
215.75
20
175
11
194.25
21
175
0
LINE
8
0-2
10
194.25
20
175
11
194.25
21
173.5
0
LINE
8
0-2
10
196.28125
20
175
11
197.03125
21
175
0
LINE
8
0-2
10
197.03125
20
175
11
197.03125
21
232
0
LINE
8
0-2
10
197.03125
20
232
11
196.28125
21
232
0
LINE
8
0-2
10
196.28125
20
232
11
196.28125
21
175
0
LINE
8
0-2
10
199.0625
20
175
11
199.8125
21
175
0
LINE
8
0-2
10
199.8125
20
175
11
199.8125
21
232
0
LINE
8
0-2
10
199.8125
20
232
11
199.0625
21
232
0
LINE
8
0-2
10
199.0625
20
232
11
199.0625
21
175
0
LINE
8
0-2
10
201.84375
20
175
11
202.59375
21
175
0
LINE
8
0-2
10
202.59375
20
175
11
202.59375
21
232
0
LINE
8
0-2
10
202.59375
20
232
11
201.84375
21
232
0
LINE
8
0-2
10
201.84375
20
232
11
201.84375
21
175
0
LINE
8
0-2
10
204.625
20
175
11
205.375
21
175
0
LINE
8
0-2
10
205.375
20
175
11
205.375
21
232
0
LINE
8
0-2
10
205.375
20
232
11
204.625
21
232
0
LINE
8
0-2
10
204.625
20
232
11
204.625
21
175
0
LINE
8
0-2
10
207.40625
20
175
11
208.15625
21
175
0
LINE
8
0-2
10
208.15625
20
175
11
208.15625
21
232
0
LINE
8
0-2
10
208.15625
20
232
11
207.40625
21
232
0
LINE
8
0-2
10
207.40625
20
232
11
207.40625
21
175
0
LINE
8
0-2
10
210.1875
20
175
11
210.9375
21
175
0
LINE
8
0-2
10
210.9375
20
175
11
210.9375
21
232
0
LINE
8
0-2
10
210.9375
20
232
11
210.1875
21
232
0
LINE
8
0-2
10
210.1875
20
232
11
210.1875
21
175
0
LINE
8
0-2
10
212.96875
20
175
11
213.71875
21
175
0
LINE
8
0-2
10
213.71875
20
175
11
213.71875
21
232
0
LINE
8
0-2
10
213.71875
20
232
11
212.96875
21
232
0
LINE
8
0-2
10
212.96875
20
232
11
212.96875
21
175
0
LINE
8
8-1
10
192.5
20
173.5
11
217.5
21
173.5
0
LINE
8
8-1
10
217.5
20
173.5
11
217.5
21
233.5
0
LINE
8
8-1
10
217.5
20
233.5
11
192.5
21
233.5
0
LINE
8
8-1
10
192.5
20
233.5
11
192.5
21
173.5
0
LINE
8
8-F
10
192.5
20
172.25
11
217.5
21
172.25
0
LINE
8
8-F
10
192.5
20
182.25
11
192.5
21
162.25
0
LINE
8
8-F
10
217.5
20
182.25
11
217.5
21
162.25
0
TEXT
8
8-F
10
165
20
187.25
40
0.5
1
W 1000
0
LINE
8
8-F
10
194.25
20
171
11
215.75
21
171
0
LINE
8
8-F
10
194.25
20
179
11
194.25
21
163
0
LINE
8
8-F
10
215.75
20
179
11
215.75
21
163
0
TEXT
8
8-F
10
175
20
183
40
0.45
1
860
0
LINE
8
8-F
10
191.25
20
173.5
11
191.25
21
233.5
0
LINE
8
8-F
10
181.25
20
173.5
11
201.25
21
173.5
0
LINE
8
8-F
10
181.25
20
233.5
11
201.25
21
233.5
0
TEXT
8
8-F
10
151.25
20
213.5
40
0.5
1
H 2400
0
LINE
8
8-F
10
190
20
175
11
190
21
232
0
LINE
8
8-F
10
182
20
175
11
198
21
175
0
LINE
8
8-F
10
182
20
232
11
198
21
232
0
TEXT
8
8-F
10
160
20
211.5
40
0.45
1
2280
0
LINE
8
8-0
10
140
20
268.5
11
200
21
268.5
0
LINE
8
8-0
10
200
20
268.5
11
200
21
280.5
0
LINE
8
8-0
10
200
20
280.5
11
140
21
280.5
0
LINE
8
8-0
10
140
20
280.5
11
140
21
268.5
0
TEXT
8
8-0
10
145
20
271.5
40
8
1
D-5
0
TEXT
8
8-0
10
205
20
271.5
40
6
1
玄関ルーバー
0
TEXT
8
8-0
10
140
20
133.5
40
5
1
Spec:
0
ENDSEC
0
EOF